<svg width="73" height="32" viewBox="0 0 73 32" fill="none" xmlns="http://www.w3.org/2000/svg">
<path d="M24.147 13.2312C23.5294 13.2312 22.9117 13.4375 22.2941 14.0562V14.2625L21.8823 17.15C21.8823 17.3562 21.8823 17.5625 21.8823 17.7687C21.8823 18.8 22.2941 19.2125 23.3235 19.2125C23.9412 19.2125 24.5588 19.0062 24.9706 18.5937C25.5882 17.975 26 16.5312 26 15.2937C25.7941 13.85 25.3824 13.2312 24.147 13.2312Z" fill="url(#paint0_linear_3705_189)"/>
<path d="M49.8825 15.9125C49.059 15.9125 48.4414 16.1187 48.0296 16.325C47.6178 16.7375 47.2061 17.15 47.2061 17.975C47.2061 18.8 47.6178 19.2125 48.4414 19.2125C49.2648 19.2125 50.0884 18.8 50.2943 17.975C50.5001 17.5625 50.7061 16.9437 50.9119 16.1187H50.7061C50.5001 15.9125 50.2943 15.9125 49.8825 15.9125Z" fill="url(#paint1_linear_3705_189)"/>
<path d="M31.9703 13.2312C30.7349 13.2312 30.1173 13.85 29.7056 15.0875H29.9114C30.1173 15.0875 30.7349 15.0875 31.5585 15.0875H31.7643C32.3821 15.0875 32.9997 15.0875 33.2056 15.0875H33.4114V14.8812C33.4114 14.675 33.4114 14.4687 33.4114 14.4687C33.4114 13.6437 32.9997 13.2312 31.9703 13.2312Z" fill="url(#paint2_linear_3705_189)"/>
<path d="M13.647 0.03125C10.147 0.03125 6.8529 1.26875 6.2353 4.775C5.6177 8.075 0.882324 31.175 0.882324 31.175H59.3529C62.8529 31.175 66.147 30.1438 66.7646 26.4313C67.5882 22.925 72.1176 0.03125 72.1176 0.03125H13.647ZM19.6176 9.3125C20.0294 9.3125 20.2353 9.51875 20.2353 9.93125C20.2353 10.7563 19.8236 11.1688 19.2058 11.1688C18.7941 11.1688 18.5882 10.9625 18.5882 10.7563V10.55C18.5882 9.725 19 9.3125 19.6176 9.3125ZM16.3235 14.675L15.9117 17.3563C15.7059 18.8 15.5 19.625 15.5 19.8313C15.5 19.8313 15.5 19.8313 15.5 20.0375H13.647V19.8313C13.647 19.625 13.853 19.2125 13.853 18.3875C13.853 18.1813 14.0588 17.5625 14.0588 16.9438L14.2646 15.5C14.2646 15.0875 14.4706 14.8813 14.4706 14.675C14.4706 14.675 14.4706 14.675 14.4706 14.4688H14.2646C14.0588 14.4688 12.8235 14.4688 11.7941 14.4688C10.7647 14.4688 10.147 14.4688 9.73534 14.4688H9.52939C9.52939 14.675 9.52939 14.8813 9.32357 15.2938C9.32357 15.7063 9.11761 16.1188 9.11761 16.7375C8.91179 17.5625 8.91179 17.975 8.91179 18.1813C8.70584 19.0063 8.70584 19.4188 8.70584 19.625C8.70584 19.625 8.70584 19.625 8.70584 19.8313H6.8529V19.625L7.26468 17.15L7.67646 14.4688L8.08823 11.7875L8.50001 9.3125V9.10625H10.7647V9.3125C10.7647 9.51875 10.5588 10.3438 10.3529 11.375C10.3529 11.9938 10.147 12.6125 9.94117 13.2313V13.4375H10.147H12.4117H14.6764H14.8824V13.2313C14.8824 12.6125 15.0882 11.9938 15.2941 11.1688C15.5 9.725 15.5 9.725 15.7059 9.10625H17.5589C17.5589 9.3125 17.5589 9.3125 17.5589 9.3125C17.5589 9.51875 17.3529 10.3438 17.1471 11.7875L16.3235 14.675ZM18.7941 18.1813C18.5882 19.0063 18.5882 19.625 18.5882 19.8313C18.5882 19.8313 18.5882 19.8313 18.5882 20.0375H16.9411V19.8313L17.3529 18.1813L17.7647 16.325L17.9706 14.4688C18.1765 13.4375 18.1765 13.025 18.1765 12.6125C18.1765 12.6125 18.1765 12.6125 18.1765 12.4063H19.8236V12.6125C19.8236 12.8188 19.6176 13.4375 19.4118 14.4688L19 16.1188L18.7941 18.1813ZM26.8235 17.975C26.2059 19.4188 24.9706 20.2438 23.3235 20.2438C22.2941 20.2438 21.8823 20.0375 21.4705 19.2125V19.4188L21.0588 21.4813C20.8529 22.3063 20.8529 22.7188 20.8529 23.1313C20.8529 23.1313 20.8529 23.1313 20.8529 23.3375H19.2058C19.2058 23.1313 19.2058 23.1313 19.2058 23.1313C19.2058 22.7188 19.4118 21.8938 19.8236 20.2438L20.2353 17.5625L20.647 14.8813C21.0588 13.6438 21.0588 13.025 21.0588 12.6125C21.0588 12.6125 21.0588 12.6125 21.0588 12.4063H22.5001V12.6125V13.025V13.2313C23.3235 12.6125 23.9412 12.4063 24.9706 12.4063C26.6177 12.4063 27.6471 13.2313 27.6471 15.0875C27.4411 15.9125 27.2353 16.9438 26.8235 17.975ZM34.647 15.9125C34.2353 15.9125 33.4117 15.9125 31.9706 15.9125C30.7353 15.9125 30.1176 15.9125 29.7058 15.9125H29.5C29.2941 16.5313 29.2941 16.7375 29.2941 17.15C29.2941 18.3875 29.9118 19.0063 31.3529 19.0063C32.1765 19.0063 33.0001 18.8 33.8235 18.3875L33.6177 19.625C32.7941 19.8313 31.7647 20.0375 30.7353 20.0375C28.6765 20.0375 27.6471 19.2125 27.6471 17.3563C27.6471 16.325 27.8529 15.2938 28.2647 14.2625C28.8823 12.8188 30.1176 12.2 31.9706 12.2C33.6177 12.2 34.647 12.8188 34.647 14.2625C34.853 14.675 34.853 15.2938 34.647 15.9125ZM37.3235 15.5C37.1177 15.9125 37.1177 16.5313 36.9117 17.15C36.7059 19.0063 36.5 19.2125 36.5 20.0375H35.0588V19.8313L35.4706 18.1813L35.8824 16.325L36.0882 14.4688C36.2941 13.4375 36.2941 13.025 36.2941 12.6125C36.2941 12.6125 36.2941 12.6125 36.2941 12.4063H37.7353V12.6125L37.5294 13.6438V13.85C37.7353 13.4375 37.9411 13.4375 38.1471 13.025C38.5589 12.6125 39.1765 12.2 39.7941 12.2C40 12.2 40.4118 12.2 40.6176 12.4063L40.4118 13.4375C39.7941 13.4375 39.5882 13.4375 39.3824 13.4375C38.3529 13.4375 37.5294 14.2625 37.3235 15.5ZM42.8823 19.0063C43.5001 19.0063 44.5294 18.8 44.9412 18.5938L44.7353 19.8313C43.9117 20.0375 43.0883 20.2438 42.2647 20.2438C41.0294 20.2438 40.4118 20.0375 40 19.2125C39.7941 18.8 39.5882 18.1813 39.5882 17.3563C39.5882 16.325 39.7941 15.2938 40.4118 14.2625C40.6176 13.85 40.8236 13.4375 41.2353 13.025C41.8529 12.4063 42.6765 12.2 44.1177 12.2C44.5294 12.2 45.147 12.2 45.9706 12.4063H46.1764L45.7646 13.6438C45.147 13.4375 44.5294 13.2313 43.9117 13.2313C43.0883 13.2313 42.6765 13.4375 42.2647 13.85C41.647 14.4688 41.2353 15.9125 41.2353 17.15C41.2353 18.3875 41.647 19.0063 42.8823 19.0063ZM52.7647 15.0875L52.5588 16.5313C52.147 17.975 51.9412 19.0063 51.9412 19.625V19.8313H50.5V19.625C50.5 19.4188 50.5 19.0063 50.7058 18.5938C50.0882 19.625 49.2647 20.0375 48.0294 20.0375C46.5882 20.0375 45.7646 19.4188 45.7646 17.975C45.7646 15.9125 47.2059 14.8813 49.4706 14.8813C49.8823 14.8813 50.5 14.8813 51.1176 14.8813V14.675C51.3236 14.0563 51.3236 14.0563 51.3236 13.85C51.3236 13.2313 50.9118 13.025 49.8823 13.025C49.0589 13.025 48.4411 13.2313 47.4117 13.4375L47.6177 12.2H47.8235C48.0294 12.2 48.4411 12.2 49.0589 12.2C49.4706 12.2 49.8824 12.2 50.2941 12.2C52.147 12.2 52.9705 12.6125 52.9705 13.6438C52.9705 14.0563 52.7647 14.4688 52.7647 15.0875ZM55.647 15.5C55.4412 15.9125 55.4412 16.5313 55.2353 17.15C55.0294 19.0063 54.8235 19.2125 54.8235 20.0375H53.3823V19.8313L53.7941 18.1813L54.0001 16.1188L54.2059 14.2625C54.4117 13.2313 54.4117 12.8188 54.4117 12.4063C54.4117 12.4063 54.4117 12.4063 54.4117 12.2H56.0588V12.4063L55.853 13.4375V13.6438C56.0588 13.4375 56.0588 13.2313 56.2646 13.025C56.6764 12.6125 57.2941 12.2 57.9117 12.2C58.1177 12.2 58.5294 12.2 58.7353 12.4063L58.5294 13.4375C58.1177 13.4375 57.9118 13.4375 57.7059 13.4375C56.6764 13.4375 55.853 14.2625 55.647 15.5ZM65.9412 9.3125C65.7353 9.93125 65.7353 10.7563 65.3235 11.9938C64.9117 14.2625 64.7059 15.0875 64.4999 16.325C64.4999 18.1813 64.2941 19.2125 64.2941 19.8313V20.0375H62.8529C62.8529 19.8313 62.8529 19.625 62.8529 19.4188C62.8529 19.2125 62.8529 19.0063 62.8529 18.8C62.2353 19.8313 61.6176 20.2438 60.1765 20.2438C58.3235 20.2438 57.5 19.4188 57.5 17.5625C57.5 16.5313 57.7059 15.5 58.3235 14.4688C59.1471 13.025 60.3824 12.2 62.0294 12.2C62.4412 12.2 63.0588 12.2 63.2647 12.4063C63.4706 12.4063 63.4705 12.4063 63.6765 12.6125V12.4063C63.6765 12.2 63.8823 11.5813 63.8823 10.9625C64.2941 10.1375 64.4999 9.725 64.4999 9.3125V9.10625L65.9412 9.3125Z" fill="url(#paint3_linear_3705_189)"/>
<path d="M60.7939 13.85C59.9704 14.4687 59.5586 15.9125 59.5586 17.3562C59.5586 18.5937 59.9704 19.0062 60.9999 19.0062C61.8233 19.0062 62.441 18.5937 62.8528 17.7687C63.0586 17.3562 63.0586 16.9437 63.2645 16.5312C63.4704 15.7062 63.6762 14.2625 63.8822 13.4375V13.2312C63.2645 13.4375 62.8528 13.2312 62.2351 13.2312C61.6175 13.2312 61.2057 13.4375 60.7939 13.85Z" fill="url(#paint4_linear_3705_189)"/>
<defs>
<linearGradient id="paint0_linear_3705_189" x1="21.7527" y1="16.2192" x2="25.8431" y2="16.2192" gradientUnits="userSpaceOnUse">
<stop stop-color="white"/>
<stop offset="1" stop-color="white" stop-opacity="0.75"/>
</linearGradient>
<linearGradient id="paint1_linear_3705_189" x1="47.3479" y1="17.5342" x2="51.1056" y2="17.5342" gradientUnits="userSpaceOnUse">
<stop stop-color="white"/>
<stop offset="1" stop-color="white" stop-opacity="0.75"/>
</linearGradient>
<linearGradient id="paint2_linear_3705_189" x1="29.7214" y1="14.1476" x2="33.4212" y2="14.1476" gradientUnits="userSpaceOnUse">
<stop stop-color="white"/>
<stop offset="1" stop-color="white" stop-opacity="0.75"/>
</linearGradient>
<linearGradient id="paint3_linear_3705_189" x1="0.810722" y1="15.5" x2="72.1893" y2="15.5" gradientUnits="userSpaceOnUse">
<stop stop-color="white"/>
<stop offset="1" stop-color="white" stop-opacity="0.75"/>
</linearGradient>
<linearGradient id="paint4_linear_3705_189" x1="59.4485" y1="16.1956" x2="63.7963" y2="16.1956" gradientUnits="userSpaceOnUse">
<stop stop-color="white"/>
<stop offset="1" stop-color="white" stop-opacity="0.75"/>
</linearGradient>
</defs>
</svg>
